<?xml version="1.0" encoding="utf-8"?>
<!-- Generator: Adobe Illustrator 19.0.0, SVG Export Plug-In . SVG Version: 6.00 Build 0)  -->
<svg version="1.1" id="Capa_1" xmlns="http://www.w3.org/2000/svg" xmlns:xlink="http://www.w3.org/1999/xlink" x="0px" y="0px"
	 viewBox="-84 208.7 425.2 425.2" style="enable-background:new -84 208.7 425.2 425.2;" xml:space="preserve">
<style type="text/css">
	.st0{display:none;}
	.st1{display:inline;}
	.st2{fill:#F8F7F7;}
</style>
<g class="st0">
	<g class="st1">
		<g>
			<path class="st2" d="M332.8,361.6L206.7,486.8l126.1,125.3c2.3-4.8,3.7-10,3.7-15.7V377.2C336.4,371.6,335.1,366.3,332.8,361.6z"
				/>
		</g>
	</g>
	<g class="st1">
		<g>
			<path class="st2" d="M299.9,340.7H-42.7c-5.6,0-10.9,1.4-15.7,3.7l161.2,160.3c14.2,14.2,37.4,14.2,51.7,0l161.1-160.3
				C310.8,342.1,305.5,340.7,299.9,340.7z"/>
		</g>
	</g>
	<g class="st1">
		<g>
			<path class="st2" d="M-75.6,361.6c-2.3,4.8-3.7,10-3.7,15.7v219.2c0,5.6,1.4,10.9,3.7,15.7L50.5,486.9L-75.6,361.6z"/>
		</g>
	</g>
	<g class="st1">
		<g>
			<path class="st2" d="M189.5,504l-17.8,17.8c-23.7,23.7-62.4,23.7-86.1,0L67.8,504L-58.4,629.3c4.8,2.3,10,3.7,15.7,3.7h342.6
				c5.6,0,10.9-1.4,15.7-3.7L189.5,504z"/>
		</g>
	</g>
</g>
<g>
	<g>
		<path class="st2" d="M76.2,471.4c0,0,41.9-3.2,41.9-53.8c0-50.6-34.3-75.3-77.7-75.3h-79.9h-2.3h-60.6v282.8h60.6h2.3h79.9
			c0,0,87.2,2.8,87.2-83.4C127.6,541.5,131.4,471.4,76.2,471.4z M-39.6,392.5H30h10.2c0,0,19.4,0,19.4,29.4
			c0,29.4-11.4,33.7-24.4,33.7h-75v-63.1H-39.6z M36.7,574.8h-76.2v-75.6h79.9c0,0,28.9-0.4,28.9,38.8
			C69.3,570.7,48.1,574.5,36.7,574.8z"/>
		<rect x="184.8" y="358.9" class="st2" width="113.3" height="34.8"/>
		<path class="st2" d="M243.8,414.2c-105.6,0-105.5,108.7-105.5,108.7S131.1,631,243.8,631c0,0,94,5.5,94-75.2h-48.3
			c0,0,1.6,30.5-44,30.5c0,0-48.3,3.4-48.3-49.2h142.2C339.4,537,354.9,414.2,243.8,414.2z M286.8,499.2h-90.2
			c0,0,5.9-43.6,48.3-43.6C287.4,455.6,286.8,499.2,286.8,499.2z"/>
	</g>
</g>
</svg>
