<?xml version="1.0" encoding="utf-8"?>
<!-- Generator: Adobe Illustrator 19.0.0, SVG Export Plug-In . SVG Version: 6.00 Build 0)  -->
<svg version="1.1" id="Capa_1" xmlns="http://www.w3.org/2000/svg" xmlns:xlink="http://www.w3.org/1999/xlink" x="0px" y="0px"
	 viewBox="122 325.8 206 209" style="enable-background:new 122 325.8 206 209;" xml:space="preserve">
<style type="text/css">
	.st0{fill:#FFFFFF;}
</style>
<circle cx="225" cy="431.3" r="95.7"/>
<path class="st0" d="M220.6,438.7h-27.8l-4.8,13.6h-11.4l23.8-66.6H213l23.8,66.6h-11.5L220.6,438.7z M217.5,429.8L206.7,399
	l-10.9,30.9H217.5z"/>
<path class="st0" d="M269.7,388.3c1.1,3.2,1.5,6.4,1,9.8c-0.5,3.4-2.1,6.5-4.7,9.5c-2.7,2.9-6.6,5.3-11.8,7.2l-11.3,4.1l9.1,25.4
	l-10.3,3.7l-22.5-62.5l21.6-7.8c4.8-1.7,9.2-2.3,13.1-1.9c3.9,0.4,7.2,1.7,9.9,4C266.5,382,268.5,384.8,269.7,388.3z M251.3,406.4
	c3.9-1.4,6.5-3.3,7.8-5.8c1.3-2.5,1.3-5.4,0.2-8.6c-2.5-6.8-7.6-8.9-15.3-6.1l-11.3,4.1l7.4,20.4L251.3,406.4z"/>
<path class="st0" d="M181.9,465.7c1.3,0,2.4,0.2,3.3,0.7c1,0.5,1.7,1.2,2.2,2.1c0.5,0.9,0.8,2,0.8,3.2s-0.3,2.3-0.8,3.2
	c-0.5,0.9-1.3,1.6-2.2,2.1c-1,0.5-2.1,0.7-3.3,0.7H178v-12H181.9z M181.9,476.1c1.4,0,2.5-0.4,3.2-1.1c0.7-0.8,1.1-1.8,1.1-3.2
	c0-1.4-0.4-2.5-1.1-3.3c-0.7-0.8-1.8-1.2-3.2-1.2H180v8.8H181.9z M193.7,465.7v12h-2v-12H193.7z M201.8,477.8
	c-0.8,0-1.5-0.1-2.2-0.4c-0.6-0.3-1.1-0.7-1.5-1.2c-0.4-0.5-0.6-1.1-0.6-1.8h2.1c0,0.5,0.2,0.9,0.6,1.3c0.4,0.3,0.9,0.5,1.5,0.5
	c0.7,0,1.2-0.2,1.6-0.5c0.4-0.3,0.6-0.8,0.6-1.3c0-0.4-0.1-0.7-0.4-1c-0.2-0.3-0.5-0.4-0.9-0.6c-0.3-0.1-0.8-0.3-1.4-0.4
	c-0.8-0.2-1.4-0.4-1.9-0.6c-0.5-0.2-0.9-0.6-1.2-1c-0.3-0.4-0.5-1-0.5-1.8c0-0.7,0.2-1.3,0.5-1.8c0.3-0.5,0.8-0.9,1.4-1.2
	s1.3-0.4,2.2-0.4c1.2,0,2.1,0.3,2.8,0.9c0.7,0.6,1.2,1.4,1.2,2.4h-2.2c0-0.4-0.2-0.8-0.6-1.1c-0.4-0.3-0.9-0.5-1.5-0.5
	c-0.6,0-1,0.1-1.4,0.4s-0.5,0.7-0.5,1.2c0,0.4,0.1,0.7,0.3,0.9c0.2,0.2,0.5,0.4,0.9,0.6c0.3,0.1,0.8,0.3,1.4,0.4
	c0.8,0.2,1.4,0.4,1.9,0.7c0.5,0.2,0.9,0.6,1.3,1c0.4,0.4,0.5,1.1,0.5,1.8c0,0.6-0.2,1.2-0.5,1.7c-0.3,0.5-0.8,1-1.4,1.3
	C203.4,477.6,202.6,477.8,201.8,477.8z M211.7,467.3v3.5h4.1v1.6h-4.1v3.7h4.6v1.6h-6.6v-12h6.6v1.6H211.7z M230.2,477.7h-2
	l-5.9-8.9v8.9h-2v-12h2l5.9,8.9v-8.9h2V477.7z M222.5,464.7c0.1-0.7,0.3-1.2,0.7-1.5c0.3-0.3,0.8-0.5,1.3-0.5c0.2,0,0.4,0,0.6,0.1
	c0.2,0.1,0.4,0.2,0.6,0.3c0.2,0.1,0.3,0.2,0.4,0.3c0.1,0.1,0.3,0.1,0.4,0.1c0.2,0,0.4-0.1,0.5-0.2c0.1-0.1,0.2-0.3,0.3-0.6h1.1
	c-0.1,0.7-0.3,1.2-0.7,1.5c-0.3,0.3-0.8,0.5-1.3,0.5c-0.2,0-0.4,0-0.6-0.1c-0.2-0.1-0.4-0.2-0.6-0.3c-0.2-0.1-0.4-0.2-0.5-0.3
	c-0.1-0.1-0.2-0.1-0.4-0.1c-0.2,0-0.4,0.1-0.5,0.2c-0.1,0.1-0.2,0.3-0.2,0.6H222.5z M239.8,477.8c-1.1,0-2.1-0.3-3.1-0.8
	c-0.9-0.5-1.7-1.3-2.2-2.2c-0.5-0.9-0.8-2-0.8-3.2c0-1.2,0.3-2.2,0.8-3.2c0.6-0.9,1.3-1.7,2.2-2.2c0.9-0.5,2-0.8,3.1-0.8
	c1.1,0,2.2,0.3,3.1,0.8c0.9,0.5,1.7,1.2,2.2,2.2s0.8,2,0.8,3.2c0,1.2-0.3,2.2-0.8,3.2c-0.5,0.9-1.3,1.7-2.2,2.2
	C241.9,477.5,240.9,477.8,239.8,477.8z M239.8,476.1c0.8,0,1.5-0.2,2.1-0.5c0.6-0.4,1.1-0.9,1.4-1.5c0.4-0.7,0.5-1.5,0.5-2.3
	c0-0.9-0.2-1.7-0.5-2.3c-0.3-0.7-0.8-1.2-1.4-1.5s-1.3-0.5-2.1-0.5c-0.8,0-1.5,0.2-2.1,0.5c-0.6,0.4-1.1,0.9-1.5,1.5
	c-0.3,0.7-0.5,1.4-0.5,2.3c0,0.9,0.2,1.7,0.5,2.3c0.4,0.7,0.8,1.2,1.5,1.5C238.3,475.9,239,476.1,239.8,476.1z M257.3,465.7v7.6
	c0,0.9,0.2,1.6,0.7,2c0.5,0.5,1.1,0.7,2,0.7c0.9,0,1.5-0.2,2-0.7c0.5-0.5,0.7-1.1,0.7-2v-7.6h2v7.6c0,1-0.2,1.8-0.6,2.5
	s-1,1.2-1.7,1.5s-1.5,0.5-2.4,0.5c-0.9,0-1.6-0.2-2.4-0.5c-0.7-0.3-1.3-0.8-1.7-1.5c-0.4-0.7-0.6-1.5-0.6-2.5v-7.6H257.3z
	 M270.8,465.7v12h-2v-12H270.8z"/>
<rect x="171.4" y="449" width="68.9" height="4.8"/>
</svg>
