<?xml version="1.0" encoding="utf-8"?>
<!-- Generator: Adobe Illustrator 19.0.0, SVG Export Plug-In . SVG Version: 6.00 Build 0)  -->
<svg version="1.1" id="Capa_1" xmlns="http://www.w3.org/2000/svg" xmlns:xlink="http://www.w3.org/1999/xlink" x="0px" y="0px"
	 viewBox="-84 208.7 425.2 425.2" style="enable-background:new -84 208.7 425.2 425.2;" xml:space="preserve">
<style type="text/css">
	.st0{display:none;}
	.st1{display:inline;}
	.st2{fill:#F8F7F7;}
	.st3{display:inline;fill:#F8F7F7;}
</style>
<g class="st0">
	<g class="st1">
		<g>
			<path class="st2" d="M332.8,361.6L206.7,486.8l126.1,125.3c2.3-4.8,3.7-10,3.7-15.7V377.2C336.4,371.6,335.1,366.3,332.8,361.6z"
				/>
		</g>
	</g>
	<g class="st1">
		<g>
			<path class="st2" d="M299.9,340.7H-42.7c-5.6,0-10.9,1.4-15.7,3.7l161.2,160.3c14.2,14.2,37.4,14.2,51.7,0l161.1-160.3
				C310.8,342.1,305.5,340.7,299.9,340.7z"/>
		</g>
	</g>
	<g class="st1">
		<g>
			<path class="st2" d="M-75.6,361.6c-2.3,4.8-3.7,10-3.7,15.7v219.2c0,5.6,1.4,10.9,3.7,15.7L50.5,486.9L-75.6,361.6z"/>
		</g>
	</g>
	<g class="st1">
		<g>
			<path class="st2" d="M189.5,504l-17.8,17.8c-23.7,23.7-62.4,23.7-86.1,0L67.8,504L-58.4,629.3c4.8,2.3,10,3.7,15.7,3.7h342.6
				c5.6,0,10.9-1.4,15.7-3.7L189.5,504z"/>
		</g>
	</g>
</g>
<g>
	<path class="st2" d="M208.7,299.6H56.5c-49.5,0-89.8,40.3-89.8,89.8v152.2c0,49.5,40.3,89.8,89.8,89.8h152.2
		c49.5,0,89.8-40.3,89.8-89.8V389.4C298.6,339.9,258.3,299.6,208.7,299.6z M132.6,556.3c-50,0-90.8-40.7-90.8-90.8
		s40.7-90.8,90.8-90.8s90.8,40.7,90.8,90.8S182.6,556.3,132.6,556.3z M225.5,396.2c-14.8,0-26.8-12-26.8-26.8
		c0-14.8,12-26.8,26.8-26.8s26.8,12,26.8,26.8C252.3,384.2,240.3,396.2,225.5,396.2z"/>
	<path class="st2" d="M132.6,394.2c-39.3,0-71.3,32-71.3,71.3c0,39.3,32,71.3,71.3,71.3c39.3,0,71.3-32,71.3-71.3
		C203.9,426.2,171.9,394.2,132.6,394.2z"/>
	<path class="st2" d="M225.5,362c-4.1,0-7.4,3.3-7.4,7.4s3.3,7.4,7.4,7.4c4.1,0,7.4-3.3,7.4-7.4S229.6,362,225.5,362z"/>
</g>
<g class="st0">
	<path class="st3" d="M209.2,280.6H48.7c-52.2,0-94.8,42.5-94.8,94.8v160.5c0,52.2,42.5,94.8,94.8,94.8h160.5
		c52.2,0,94.8-42.5,94.8-94.8V375.3C304,323.1,261.4,280.6,209.2,280.6z M283.5,535.8c0,40.9-33.3,74.2-74.2,74.2H48.7
		c-40.9,0-74.2-33.3-74.2-74.2V375.3c0-40.9,33.3-74.2,74.2-74.2h160.5c40.9,0,74.2,33.3,74.2,74.2V535.8z"/>
	<path class="st3" d="M129,359.9c-52.8,0-95.7,42.9-95.7,95.7s42.9,95.7,95.7,95.7s95.7-42.9,95.7-95.7S181.7,359.9,129,359.9z
		 M129,530.8c-41.4,0-75.2-33.7-75.2-75.2c0-41.4,33.7-75.2,75.2-75.2c41.4,0,75.2,33.7,75.2,75.2C204.2,497,170.4,530.8,129,530.8z
		"/>
	<path class="st3" d="M226.9,325.9c-15.6,0-28.3,12.7-28.3,28.3s12.7,28.3,28.3,28.3s28.3-12.7,28.3-28.3S242.6,325.9,226.9,325.9z
		 M226.9,361.9c-4.3,0-7.8-3.5-7.8-7.8s3.5-7.8,7.8-7.8c4.3,0,7.8,3.5,7.8,7.8C234.7,358.4,231.2,361.9,226.9,361.9z"/>
</g>
</svg>
