<?xml version="1.0" encoding="utf-8"?>
<!-- Generator: Adobe Illustrator 19.0.0, SVG Export Plug-In . SVG Version: 6.00 Build 0)  -->
<svg version="1.1" id="Layer_1" xmlns="http://www.w3.org/2000/svg" xmlns:xlink="http://www.w3.org/1999/xlink" x="0px" y="0px"
	 viewBox="-51 174.9 492 492" style="enable-background:new -51 174.9 492 492;" xml:space="preserve">
<g>
	<g>
		<path d="M114.7,420.8c0,4,1.5,7.8,4.4,10.6l121.7,121.7c2.8,2.8,6.6,4.4,10.6,4.4s7.8-1.6,10.6-4.4l9-8.9
			c2.8-2.8,4.4-6.6,4.4-10.6c0-4-1.6-7.8-4.4-10.6L168.7,420.8l102.1-102.1c5.8-5.8,5.8-15.3,0-21.1l-9-9c-2.8-2.8-6.6-4.4-10.6-4.4
			s-7.8,1.6-10.6,4.4L119.1,410.2C116.3,413,114.7,416.8,114.7,420.8z"/>
	</g>
</g>
</svg>
