<svg width="522" height="535" viewBox="0 0 522 535" fill="none" xmlns="http://www.w3.org/2000/svg">
<circle cx="263" cy="270" r="200" fill="black"/>
<path d="M249.8 285.6H191.6L181.6 314H157.8L207.6 174.8H234L283.8 314H259.8L249.8 285.6ZM243.4 267L220.8 202.4L198 267H243.4Z" fill="white"/>
<path d="M352.543 180.123C354.937 186.772 355.627 193.609 354.613 200.634C353.6 207.66 350.321 214.296 344.776 220.544C339.186 226.666 330.996 231.669 320.207 235.553L296.497 244.089L315.602 297.155L294.149 304.878L247.066 174.095L292.228 157.836C302.264 154.223 311.365 152.931 319.529 153.959C327.774 154.817 334.651 157.585 340.161 162.261C345.796 166.893 349.924 172.847 352.543 180.123ZM313.907 218.052C322.061 215.117 327.491 211.107 330.196 206.024C332.855 200.815 332.965 194.824 330.527 188.049C325.378 173.748 314.712 169.51 298.529 175.336L274.818 183.872L290.197 226.588L313.907 218.052Z" fill="white"/>
<path d="M168.872 341.98C171.536 341.98 173.864 342.496 175.856 343.528C177.872 344.536 179.42 346 180.5 347.92C181.604 349.816 182.156 352.036 182.156 354.58C182.156 357.124 181.604 359.332 180.5 361.204C179.42 363.076 177.872 364.516 175.856 365.524C173.864 366.508 171.536 367 168.872 367H160.7V341.98H168.872ZM168.872 363.652C171.8 363.652 174.044 362.86 175.604 361.276C177.164 359.692 177.944 357.46 177.944 354.58C177.944 351.676 177.164 349.408 175.604 347.776C174.044 346.144 171.8 345.328 168.872 345.328H164.804V363.652H168.872ZM193.567 341.98V367H189.463V341.98H193.567ZM210.44 367.252C208.76 367.252 207.248 366.964 205.904 366.388C204.56 365.788 203.504 364.948 202.736 363.868C201.968 362.788 201.584 361.528 201.584 360.088H205.976C206.072 361.168 206.492 362.056 207.236 362.752C208.004 363.448 209.072 363.796 210.44 363.796C211.856 363.796 212.96 363.46 213.752 362.788C214.544 362.092 214.94 361.204 214.94 360.124C214.94 359.284 214.688 358.6 214.184 358.072C213.704 357.544 213.092 357.136 212.348 356.848C211.628 356.56 210.62 356.248 209.324 355.912C207.692 355.48 206.36 355.048 205.328 354.616C204.32 354.16 203.456 353.464 202.736 352.528C202.016 351.592 201.656 350.344 201.656 348.784C201.656 347.344 202.016 346.084 202.736 345.004C203.456 343.924 204.464 343.096 205.76 342.52C207.056 341.944 208.556 341.656 210.26 341.656C212.684 341.656 214.664 342.268 216.2 343.492C217.76 344.692 218.624 346.348 218.792 348.46H214.256C214.184 347.548 213.752 346.768 212.96 346.12C212.168 345.472 211.124 345.148 209.828 345.148C208.652 345.148 207.692 345.448 206.948 346.048C206.204 346.648 205.832 347.512 205.832 348.64C205.832 349.408 206.06 350.044 206.516 350.548C206.996 351.028 207.596 351.412 208.316 351.7C209.036 351.988 210.02 352.3 211.268 352.636C212.924 353.092 214.268 353.548 215.3 354.004C216.356 354.46 217.244 355.168 217.964 356.128C218.708 357.064 219.08 358.324 219.08 359.908C219.08 361.18 218.732 362.38 218.036 363.508C217.364 364.636 216.368 365.548 215.048 366.244C213.752 366.916 212.216 367.252 210.44 367.252ZM231.266 345.292V352.636H239.906V355.984H231.266V363.652H240.986V367H227.162V341.944H240.986V345.292H231.266ZM269.837 367H265.733L253.385 348.316V367H249.281V341.944H253.385L265.733 360.592V341.944H269.837V367ZM253.709 339.892C253.901 338.5 254.357 337.456 255.077 336.76C255.797 336.04 256.697 335.68 257.777 335.68C258.233 335.68 258.629 335.752 258.965 335.896C259.301 336.04 259.709 336.256 260.189 336.544C260.549 336.784 260.849 336.964 261.089 337.084C261.353 337.204 261.641 337.264 261.953 337.264C262.361 337.264 262.697 337.144 262.961 336.904C263.249 336.64 263.429 336.256 263.501 335.752H265.805C265.613 337.144 265.157 338.2 264.437 338.92C263.717 339.616 262.817 339.964 261.737 339.964C261.281 339.964 260.873 339.892 260.513 339.748C260.153 339.58 259.757 339.352 259.325 339.064C258.893 338.8 258.557 338.62 258.317 338.524C258.101 338.404 257.849 338.344 257.561 338.344C257.153 338.344 256.805 338.476 256.517 338.74C256.253 339.004 256.085 339.388 256.013 339.892H253.709ZM289.878 367.252C287.55 367.252 285.402 366.712 283.434 365.632C281.49 364.528 279.942 363.004 278.79 361.06C277.662 359.092 277.098 356.884 277.098 354.436C277.098 351.988 277.662 349.792 278.79 347.848C279.942 345.904 281.49 344.392 283.434 343.312C285.402 342.208 287.55 341.656 289.878 341.656C292.23 341.656 294.378 342.208 296.322 343.312C298.29 344.392 299.838 345.904 300.966 347.848C302.094 349.792 302.658 351.988 302.658 354.436C302.658 356.884 302.094 359.092 300.966 361.06C299.838 363.004 298.29 364.528 296.322 365.632C294.378 366.712 292.23 367.252 289.878 367.252ZM289.878 363.688C291.534 363.688 293.01 363.316 294.306 362.572C295.602 361.804 296.61 360.724 297.33 359.332C298.074 357.916 298.446 356.284 298.446 354.436C298.446 352.588 298.074 350.968 297.33 349.576C296.61 348.184 295.602 347.116 294.306 346.372C293.01 345.628 291.534 345.256 289.878 345.256C288.222 345.256 286.746 345.628 285.45 346.372C284.154 347.116 283.134 348.184 282.39 349.576C281.67 350.968 281.31 352.588 281.31 354.436C281.31 356.284 281.67 357.916 282.39 359.332C283.134 360.724 284.154 361.804 285.45 362.572C286.746 363.316 288.222 363.688 289.878 363.688ZM326.596 341.98V357.928C326.596 359.824 327.088 361.252 328.072 362.212C329.08 363.172 330.472 363.652 332.248 363.652C334.048 363.652 335.44 363.172 336.424 362.212C337.432 361.252 337.936 359.824 337.936 357.928V341.98H342.04V357.856C342.04 359.896 341.596 361.624 340.708 363.04C339.82 364.456 338.632 365.512 337.144 366.208C335.656 366.904 334.012 367.252 332.212 367.252C330.412 367.252 328.768 366.904 327.28 366.208C325.816 365.512 324.652 364.456 323.788 363.04C322.924 361.624 322.492 359.896 322.492 357.856V341.98H326.596ZM354.728 341.98V367H350.624V341.98H354.728Z" fill="white"/>
<rect x="147" y="307" width="144" height="10" fill="black"/>
</svg>
