<?xml version="1.0" encoding="utf-8"?>
<!-- Generator: Adobe Illustrator 19.0.0, SVG Export Plug-In . SVG Version: 6.00 Build 0)  -->
<svg version="1.1" id="Layer_1" xmlns="http://www.w3.org/2000/svg" xmlns:xlink="http://www.w3.org/1999/xlink" x="0px" y="0px"
	 viewBox="-51 174.9 492 492" style="enable-background:new -51 174.9 492 492;" xml:space="preserve">
<g>
	<g>
		<path d="M270.9,410.2L149.3,288.6c-2.8-2.8-6.6-4.4-10.6-4.4s-7.8,1.6-10.6,4.4l-9,9c-5.8,5.8-5.8,15.3,0,21.1l102.1,102.1
			L119.1,523c-2.8,2.8-4.4,6.6-4.4,10.6c0,4,1.6,7.8,4.4,10.6l9,8.9c2.8,2.8,6.6,4.4,10.6,4.4s7.8-1.6,10.6-4.4l121.7-121.7
			c2.8-2.8,4.4-6.6,4.4-10.6C275.3,416.8,273.7,413,270.9,410.2z"/>
	</g>
</g>
</svg>
